<svg xmlns="http://www.w3.org/2000/svg" viewBox="0 0 48.37 58.4"><defs><style>.cls-1{fill:#fff;}.cls-2{fill:#010101;}</style></defs><title>Asset 1</title><g id="Layer_2" data-name="Layer 2"><g id="Layer_1-2" data-name="Layer 1"><path class="cls-1" d="M24.91,28.26c.11.05.35-.13.37-.39.07.11.14-.1.12.17.09,0,0-.24,0-.33-.12.28-.21-.1-.41-.06,0-.19.09,0,.16-.11s-.17-.06-.12-.28c.15.2.37,0,.41.28l.12-.22c.18-.06.23.06.33.11s0-.29-.08-.28c.07-.18.15,0,.33-.06s0-.25.12-.17l-.12-.17c-.08,0,.06.15,0,.22s-.22,0-.45.06c.08-.13.26-.13.37-.22s-.21-.08-.2-.28c.23.05.32-.18.24-.39.12,0,.11-.08.2-.06v.22c0-.21.28-.06.24-.33.11.15.09-.07.2-.06-.07.23,0,0,.12,0,0,.27.23.31.28.56.21,0,.08-.45.24-.17.1,0,0-.18,0-.17s-.08.11-.16.11A.19.19,0,0,1,27,26c.07.14.07,0,.16.11.06-.09,0-.18,0-.28s0,.18-.16.11.07-.12,0-.28c.15,0,.19.19.24.33.12,0,.07-.27.08-.44H23.92c.07.1.19.19.17.4.14.05.09-.2.23-.14,0,.12,0,.13.09.14a.28.28,0,0,0,.19.43,1.64,1.64,0,0,0-.42.14c0,.3.11.3.28.29v.07c.1.14-.27.53.09.57.07.35-.13.27-.14.5a.38.38,0,0,0,.09.28c.1-.08.19-.34.33-.14,0,.11-.06,0-.14,0a.34.34,0,0,0,.06.23h.15A.2.2,0,0,0,24.91,28.26Z"/><path class="cls-1" d="M28.49,25.65a.35.35,0,0,0,0-.11h-.14Z"/><path class="cls-1" d="M6.35,29.06H6.26v.15C6.37,29.28,6.28,29,6.35,29.06Z"/><polygon class="cls-1" points="30.2 34.41 30.24 34.22 30.2 34.41 30.2 34.41"/><path class="cls-1" d="M15.17,50.05a1.25,1.25,0,0,0-.06-.14h-.29a.33.33,0,0,1-.07.21c-.09,0-.15-.14-.23-.21h0a.33.33,0,0,1-.41.21,2.11,2.11,0,0,1,0-.21h-2s0,.08,0,.13l0,.1.09-.19c0,.19.06.27,0,.49-.12.05-.1-.1-.16-.15s-.08.19-.19.19c0-.19-.09-.13-.13-.19a.7.7,0,0,0,0-.38h-.67c.1.32.42.2.6.33,0,.14,0,.25-.06.29s-.18-.35-.22-.15l.13,0a1.2,1.2,0,0,0,0,.34.22.22,0,0,1-.28-.15l-.16.15c-.1-.09,0-.49-.19-.44a.67.67,0,0,1-.09.39c-.16.07-.17-.1-.28-.1,0-.33.11-.38.16-.58l-.13,0v-.08h-.35a3.42,3.42,0,0,0-.53.91.39.39,0,0,1-.06.28V52c2.2.06,4.67.16,7.24.3V50.61a.57.57,0,0,1-.08-.41l-.13-.28H15.57C15.41,49.93,15.39,50.15,15.17,50.05Z"/><path class="cls-1" d="M23.53,49l0-.11c-.16,0-.14.13-.24.17-.15-.22-.22.06-.44.05,0,0,0,0,0,0h.5a.6.6,0,0,1,.07-.15Z"/><path class="cls-1" d="M22.65,48.56a1.05,1.05,0,0,1,.23.4c0-.1.13-.11.16-.22s-.18-.16-.33-.17l0,0Z"/><path class="cls-1" d="M34.25,49s0,.09,0,.15h.18C34.41,49.11,34.37,49,34.25,49Z"/><path class="cls-1" d="M4.24,39a.28.28,0,0,0,0-.1l-.09-.1c0,.1,0,.18,0,.2Z"/><path class="cls-1" d="M19.17,47.14c0,.22,0,.43-.09.5s.07.11,0,.21c.39,0,.39-.49.56-.78a.59.59,0,0,0-.19-.29C19.46,47,19.37,47.17,19.17,47.14Z"/><path class="cls-1" d="M11.39,30.63s0-.05,0-.07v0c-.05-.05-.11-.09-.12,0A.14.14,0,0,1,11.39,30.63Z"/><path class="cls-1" d="M13,48.16c0,.09.09.1.12.18a1.29,1.29,0,0,1,.06-.31A.19.19,0,0,0,13,48.16Z"/><path class="cls-1" d="M19.61,44.28c.16-.19.38-.27.54-.44A6.71,6.71,0,0,0,19.61,44.28Z"/><path class="cls-1" d="M11.13,29.74l0,.29c0-.23,0-.05.09-.15a.39.39,0,0,0,.19.32h.05c-.08-.14,0-.36.09-.5h-.09c0-.09.08-.11.09-.21s-.09-.09-.17-.08-.09.07-.1.18.1-.07.13.1C11.3,29.65,11.22,30,11.13,29.74Z"/><path class="cls-1" d="M14.56,48.77c0-.13,0-.15,0-.07l0-.21c-.19-.17-.55-.16-.74.28-.12,0-.14.21-.13.39h.8a.48.48,0,0,0,.26-.39l0-.14C14.65,48.58,14.71,48.83,14.56,48.77Z"/><path class="cls-1" d="M8.24,49.08c-.06,0-.07-.19-.06-.34-.14,0-.2-.08-.22-.24l-.13.2c.08.14.11.37.21.48h.18S8.3,49.1,8.24,49.08Z"/><path class="cls-1" d="M13.6,22h-.12s0,.19.1.21A.18.18,0,0,0,13.6,22Z"/><path class="cls-1" d="M33.93,3.73a16,16,0,0,0-6.49-2.45A23.26,23.26,0,0,0,23.91,1a16.59,16.59,0,0,0-9.4,2.73Z"/><path class="cls-1" d="M26.61,4.86C28,4.92,29,4.69,30,5.21c.6.33,1.18,1.25,1.88,1.21.33,0,.54-.41.9-.47.2,0,.33.07.63,0-.17.27-.5.39-.59.74a9,9,0,0,1,2,.35,2.29,2.29,0,0,1,.2.14h2.83a19.28,19.28,0,0,0-2.29-2.34L35,4.48H13.6v-.1a19.74,19.74,0,0,0-3,2.85H30.37a17.22,17.22,0,0,1-1.81-1.36A2.15,2.15,0,0,1,26.61,4.86Z"/><path class="cls-1" d="M22.66,10.75a8.9,8.9,0,0,1-1.56-.4,2.22,2.22,0,0,1-2.17-.16c.93-.22,1.47-.83,2.54-.93A4.67,4.67,0,0,1,23,9.48c.36.08.85.28,1.15.16s.31-.54.5-.68.48-.15.74-.28c-.07.29-.3.55-.25.87.69-.07,1.18-.47,1.89-.4a17.09,17.09,0,0,1,2.45.77,2.32,2.32,0,0,1-1.64.43,3.88,3.88,0,0,0-.5-.12,2.92,2.92,0,0,0-.59.22l-1,.31H40.27A28.71,28.71,0,0,0,38.41,8H35.79a4.33,4.33,0,0,0,.91.79v.08A2.7,2.7,0,0,1,35,8.65c-.2-.1-.35-.32-.55-.39a4.67,4.67,0,0,0-1.33,0,6,6,0,0,0-1.25-.16c0,.41,0,.72,0,1.1a1.47,1.47,0,0,1-1.88-.82A2.83,2.83,0,0,1,30.56,8H10l-.18.22a26.57,26.57,0,0,0-1.71,2.55Z"/><path class="cls-1" d="M5.25,31.78c.06-.09.08,0,.16,0,0-.22.1-.23.16-.34l-.09-.1c.24,0,.27-.67.13-.83h.19c0-.19.16-.07.16-.24s-.16.06-.16,0,0-.14,0-.34l.13-.1a1.63,1.63,0,0,0,.13.39c0-.21.1-.22.13-.49,0-.09-.1,0-.09-.15s.05-.17.13-.34c-.05,0,0-.1,0-.15H2.28q-.22,1.38-.4,2.76h3.4S5.26,31.8,5.25,31.78Z"/><path class="cls-1" d="M7.11,28.3A1.07,1.07,0,0,1,7.45,28l.06-.15.09-.1c0-.14-.26-.14-.16-.29.07.25.21-.1.28,0l-.13.15.06,0c.12-.24.35,0,.47-.24,0,.32.24-.06.31.15l.06.1c.07-.11.11,0,.22,0a.31.31,0,0,1,.16-.39c.07.13-.07.26-.13.34.11.1,0,.1,0,.24.08-.05.18-.08.22-.19s0-.34.09-.19c-.15.23.13.12.09.44-.12,0-.14-.06-.19.1.1-.06,0,.16.13.1h0s-.1,0-.09.12h0c.05,0,.08-.1.15-.12s.05.09.09.12H9.5a1.75,1.75,0,0,1,.05-.17L9.43,28c.12,0,.1-.14.19-.15s0,.38.06.39.07-.27.19-.29c0,.14,0,.13,0,.24s0-.16-.13-.1v.22h.07s0,0,.05-.07,0,0,0,.07H10a.43.43,0,0,0,0-.12c.07,0,.15.2.09,0,.09,0,.07.18.16,0a.16.16,0,0,0,0,.07h2c0-.07.07-.15,0-.16s.2,0,.28-.07c.06-.31-.29-.12-.14-.36-.15-.09,0,.23-.19.14-.1-.72.28-.42.33-.78h-.23a1.55,1.55,0,0,1,0-.71c.14,0,.09,0,.23,0,.11-.17.07-.55.33-.5,0-.16-.12-.15-.23-.14a.36.36,0,0,1,0-.18H2.93q-.29,1.38-.53,2.76Z"/><path class="cls-1" d="M38.29,17.61a2.13,2.13,0,0,1-1.67-1.08c-.72-.35-1.5-.62-2.21-1-.28.21-.23.65-.38.94a1.26,1.26,0,0,1-1.32-1.29,2.66,2.66,0,0,0,.85-.19H6c-.37.91-.72,1.82-1,2.76H15.47a.44.44,0,0,0,.07-.44c.13.06.12-.1.23-.07v.28c0-.27.32-.08.28-.43.12.2.1-.08.23-.07-.08.29,0,0,.14,0,0,.34.27.4.33.71.23,0,.1-.58.28-.21.11,0,0-.23,0-.21s-.09.14-.19.14a.24.24,0,0,1-.19-.36c.08.18.08,0,.19.14.07-.11,0-.23,0-.36s0,.23-.19.14.08-.15,0-.36c.17,0,.21.24.28.43.14,0,.08-.35.09-.57.14,0,.1.27.28.21,0,.1-.07.23-.19.21a1.84,1.84,0,0,1,.14.71c.13,0,.24-.29.14-.36s.18-.1.19-.28c.12,0,.14.21.28.21,0-.19-.1-.14-.14-.21h0c.15.09,0-.23.19-.14-.07-.23-.1-.18-.28-.14-.06-.46.37-.3.14-.64.12-.22.26.13.14.28.06.17.21.2.33.28,0-.21-.16-.21,0-.36-.09-.12-.29-.3-.19-.5a.46.46,0,0,1,.23.57c.17.06.22-.16.33,0l.09-.14c.1-.3.53.25.46-.21.18.34.52,0,.7.36l.09-.07c0-.1-.07-.23-.19-.21.11-.21.31.29.42-.07.16.22-.23.22-.23.43s.14,0,.14.14.16.11.09.21c.36.21.63.34.6.71.14-.1.19.06.24.23h.16l-.12-.09c0-.08.28,0,.38.09h.06a1.12,1.12,0,0,0,0-.23c.21.21.34-.11.65-.07,0,.21-.1.13-.19.14a.25.25,0,0,1,.06.16h21.4c-.32-.93-.67-1.85-1.06-2.76H36.23a2,2,0,0,1,.82.45A17.91,17.91,0,0,1,38.29,17.61Z"/><path class="cls-1" d="M34.79,14.11a1.94,1.94,0,0,1,1.5.07l-.14.08h6c-.36-.8-.75-1.6-1.18-2.38l-.22-.38H31.37a6.59,6.59,0,0,1,1.8.69C33.83,12.67,34,13.58,34.79,14.11Z"/><path class="cls-1" d="M24.69,12.36h-.43a1.58,1.58,0,0,1-.9-.43,2.59,2.59,0,0,1,.34-.43h-16q-.75,1.35-1.37,2.76H33.23a14.68,14.68,0,0,1-1.05-1.52,2.25,2.25,0,0,1-1.34-1.23H25.09a2.11,2.11,0,0,1,.25.49C25.21,12.21,24.89,12.23,24.69,12.36Z"/><path class="cls-1" d="M15.63,18.54s0,0,0,0h-.21A.29.29,0,0,0,15.63,18.54Z"/><path class="cls-1" d="M34.46,46.74a1.1,1.1,0,0,0-.09-.21h-.08Z"/><path class="cls-1" d="M13.15,49.17a1.1,1.1,0,0,0,0-.25c.09,0,.1.15.13.25h0l0-.11c-.19-.19,0-.24,0-.43s-.16-.12-.28-.07a.55.55,0,0,1,0-.13.32.32,0,0,1,0,.06c-.18,0-.23-.24-.35,0-.08,0-.07-.19-.19-.15l0,.1h.06a1.29,1.29,0,0,1,.09.29l-.16,0c0,.16-.1,0-.06.19l.13,0c-.06.06-.05.24-.07.38Z"/><path class="cls-1" d="M13.9,21.28c0-.09-.16,0-.22,0,.09-.06,0-.36,0-.14-.06-.13.18-.19,0-.43.15,0,.25-.14.42-.14,0,.19.1.14.14.21.2,0,.21-.21.37-.21,0-.26-.21,0-.28.07s0-.24,0-.28-.09.1-.09.21c-.14-.11,0-.31,0-.5.13.06.41-.16.42-.5.08.13.16-.12.14.21.1,0,0-.3,0-.43-.14.36-.25-.13-.47-.07,0-.24.1,0,.19-.14s-.2-.08-.14-.36c.17.25.42,0,.47.36.1,0,.09-.19.14-.28.2-.07.26.08.37.14.13-.1,0-.37-.09-.36a.18.18,0,0,1,.06-.09H4.72c-.28.91-.54,1.83-.79,2.76Z"/><path class="cls-1" d="M44.73,22H23.2a.39.39,0,0,1,.06.28c.12,0,.14-.13.23,0s-.24,0-.33,0c0,.27.21.34.23.64-.19.2-.14.4,0,.71h0c-.07.38-.23.55-.14,1,.14.05.06-.25.23-.14,0-.17,0-.31-.14-.36a.2.2,0,0,1,.23-.14c-.09.24.12.37,0,.71a.09.09,0,0,0,0,.06H45.34C45.15,23.86,44.95,22.95,44.73,22Z"/><path class="cls-1" d="M22.09,18.54c.1.25,0,.33.19.5s-.13.08-.14.21c0,.39.19.41.19.71a2.39,2.39,0,0,0,.19-.57c.13-.05.09.14.19.14,0,.29-.18.33,0,.5,0,.15-.16,0-.23.07,0,.25.26.07.23.35a.17.17,0,0,1,.28,0,1.07,1.07,0,0,0-.1.82H44.54c-.24-.93-.49-1.85-.78-2.76H22.12Z"/><path class="cls-1" d="M22,18.54v0h-.08S21.95,18.58,22,18.54Z"/><path class="cls-1" d="M16.58,20.72a.52.52,0,0,0-.11.31A.55.55,0,0,1,16.58,20.72Z"/><path class="cls-1" d="M27.23,51.8c-.29-.57-.57-1.14-1.14-1.33-.11.07,0,.29,0,.39l-.16.06c.06.23.25.29.2.67-.15,0-.16.19-.37.11a.69.69,0,0,1-.12-.44c-.25-.06-.11.4-.24.5l-.2-.17a.3.3,0,0,1-.37.17,1.22,1.22,0,0,0,0-.39L25,51.3c-.05-.23-.24,0-.28.17-.07-.05-.09-.17-.08-.33.25-.16.72,0,.81-.44l0-.11c-.12,0-.08.15-.2.11s0-.11,0-.06l0-.17a.43.43,0,0,0-.65.22c-.16,0-.13.34-.08.5s-.21,0-.16.22c-.14,0-.17-.14-.24-.22s-.05.23-.2.17c0-.25.05-.33,0-.55l.12.22,0-.11c-.17-.15,0-.19,0-.33s-.14-.09-.24-.06a.61.61,0,0,1,0-.44c0-.16-.11.08-.16-.06-.07.05-.09.17-.08.33-.14,0,0-.35-.12-.44h0l-.08.1a.34.34,0,0,1,0-.1H22a2,2,0,0,0-.08.35c-.18,0-.18-.28-.32-.35h0c-.11.08-.12.34-.32.28a1.22,1.22,0,0,1,0-.28h-1a.41.41,0,0,1,0,.07s0,0-.07-.07h-.07a.34.34,0,0,0,0,.07l-.07-.07h-.44s0,0,0,.07,0,0-.05-.07h-.26a4.2,4.2,0,0,0-.39,2.19v.3l2.07.14H27.3v-.43A.41.41,0,0,1,27.23,51.8Z"/><path class="cls-1" d="M4.38,45.68c0-.15.09-.09.06-.24s-.15,0-.22,0c0-.16.06-.15,0-.24.18.06,0-.14.09-.19,0,.24.09-.13.16,0v-.14l-.16,0a.75.75,0,0,1,.22-.68s-.23,0-.13,0c.46,0,.14-.33,0-.34.06,0,.18.06.19,0s-.1-.13-.06-.34l-.06.1c0-.14-.1,0-.16,0s-.15-.29-.25-.1c0-.11.08-.18,0-.19s0,.28.06.29-.15.11-.16,0c.16,0-.09-.11,0-.29.08,0,.11,0,.15-.09h-3q0,1.31,0,2.63H4.45C4.44,45.72,4.44,45.65,4.38,45.68Z"/><path class="cls-1" d="M4.15,39H4.09c0-.09,0-.11,0-.19l-.13,0,0-.15c0-.28-.18,0-.25-.15.1,0,.19,0,.19-.19l-.09-.1c-.08-.05-.11.21-.16,0s.16-.07.13-.19v0l0,0c.06-.08,0-.21,0-.39l.06-.1c.1,0,.06.13.13.15,0-.18.14,0,.16-.15,0,.15,0,.12.06.19l.13,0-.06-.1.06-.15-.06-.1c-.07.17-.29.1-.41.1-.05-.16.13-.21,0-.29l-.09.1c0-.2.14-.17.19-.29l-.16-.1c.14,0,.17-.22.28-.29v.24h.09a.31.31,0,0,1,.13-.24c0,.16.06-.05.09,0s-.2,0-.09-.19h0s-.07.11-.08,0H1.4Q1.29,37.71,1.22,39Z"/><path class="cls-1" d="M4.12,42.41l0-.13-.09.1c0-.17.11-.12.09-.29s-.1.14-.13,0,.12,0,.09-.15S4,42,3.9,42v-.1l0,0c0-.08.15,0,.16-.1s-.12-.14-.19-.19V41.3c.06,0,.19-.19.22,0l.13,0c0-.15,0-.51.09-.39l0,.19,0-.15.06-.19-.06,0c-.11.12-.15.06-.28.1v-.24c.1,0,.13.11.16,0s-.13-.09-.16-.19L4,40.28l-.06,0-.06.15c0-.25.11-.14.13-.19a2.22,2.22,0,0,0,0-.41H1.18q-.07,1.31-.11,2.63Z"/><path class="cls-1" d="M5,49.08,5,49l-.13.15,0-.15-.09-.1,0,.15-.09-.24c0,.2,0,0-.06,0s0,.24-.13.19a1.07,1.07,0,0,1,.09-.44c-.17,0,0-.16,0-.29l-.06,0a1.19,1.19,0,0,0-.16.68l-.16,0c0-.15-.09-.09-.06-.24s.27-.2.22-.29-.12.1-.19.15c0-.18.1-.27.25-.24,0-.19.07-.33-.06-.39l0,.19c-.06,0-.1.15-.13,0S4,48.1,4,48a.79.79,0,0,0,.38-.53l-.13,0c0-.21.06,0,.06-.1l-.16-.15c0-.15.11-.06.06-.24,0,.07-.2.18-.25,0,.22-.1.25-.25.38-.44-.11,0-.15.11-.22,0,0,.12,0,.24-.06.24a.29.29,0,0,1,0-.26H1c0,.16,0,.32,0,.48,0,.72,0,1.43,0,2.15H5A.12.12,0,0,0,5,49.08Z"/><path class="cls-1" d="M46.56,32.56H33.42c.06.08.16.15.15.3s.08-.15.2-.11,0,.1.08.11c-.13.19,0,.3.16.33a1.51,1.51,0,0,0-.37.11c0,.24.1.24.24.22v.05c.09.11-.24.41.08.45.06.27-.12.21-.12.39a.27.27,0,0,0,.08.22c.08-.06.17-.27.28-.11h-.12c0,.25.16.26.33.28a1.66,1.66,0,0,0-.24.39c0,.1.14,0,.16.11s-.09-.05-.16,0c.13.24,0,.09-.12.22s.06.11.09.12h0s0,0,0-.06l.06.06h.22v-.06l.07.06H46.89C46.79,34.62,46.69,33.59,46.56,32.56Z"/><path class="cls-1" d="M47.3,49.92H33.6v.33a.78.78,0,0,0-.49-.33h-.25l-.11.1c0,.14.16.12.12.33a1.75,1.75,0,0,1-.57.17c.11.12.27.29.2.5-.07,0-.22-.34-.2,0-.13,0-.17-.07-.2-.17a3.94,3.94,0,0,0-.41,1c-.16,0-.16-.22-.28-.28s-.1.27-.28.22c-.06-.39.12-.47.16-.72-.13,0-.13.12-.12.28a1.11,1.11,0,0,0-.81-.06l-.12.33c-.06,0-.13-.23-.12,0-.12-.12-.39-.29-.49,0-.08,0,0-.18-.12-.17-.3.15-.4.58-.45,1.08H47.19Q47.26,51.23,47.3,49.92Z"/><path class="cls-1" d="M45.48,25.54H30.08a0,0,0,0,1,0,.05c.11,0,.14.09.08.17.31.16.55.26.53.56.23-.14.19.41.41.44l.08-.11a.47.47,0,0,0-.24-.22c0-.07.33,0,.37.11l0-.22c.19.17.3-.09.57-.06,0,.17-.09.1-.16.11.19.21-.12.33-.16.56.1,0,0,.25.12.17v-.17c0-.2.21.14.08.17.09.19,0,.26.16.39s-.12.06-.12.17c0,.31.16.32.16.55a1.7,1.7,0,0,0,.16-.44c.11,0,.08.11.16.11,0,.23-.16.26,0,.39a.05.05,0,0,1,0,0H46Q45.74,26.92,45.48,25.54Z"/><path class="cls-1" d="M4.63,35.62c0-.16-.14-.1-.09-.34.25,0,0-.29.06-.39v0c.11,0,.22,0,.19-.19a1.06,1.06,0,0,0-.28-.1.19.19,0,0,0,.13-.29l.06-.1c.1,0,.06.13.16.1,0-.22.22-.24.13-.44H5.1a.3.3,0,0,1,0-.34l.06.1c0-.11.09-.05.09-.15s.06-.32,0-.49l.16.1c-.06,0-.08.13-.09.24.12-.07.06.13.16.1.06-.3,0-.42-.09-.68h0l0-.14H1.78c-.12,1-.23,2.05-.32,3.08H4.62Z"/><path class="cls-1" d="M34.62,47.19c-.09,0-.09-.14-.08-.28-.09.13-.14,0-.28,0,.16.21.2.39.49.5-.07.14-.28,0-.32-.06-.06.21.11.11.08.28-.1,0-.14.1-.2.17s.11-.13.08.11l-.16.06a.91.91,0,0,0,.49.61c0,.11-.47-.13-.33.11,0,.17-.09-.05-.16,0a.4.4,0,0,0,0-.22c-.17.06-.07.23-.08.44.19,0,.29.07.32.26H47.32q0-1.32,0-2.63H34.5C34.49,46.81,34.76,46.92,34.62,47.19Z"/><path class="cls-1" d="M47.15,53.3H29v0c6.27.82,11.47,2.09,12.86,4.05h5c0-.2.06-.36.07-.5C47,55.7,47.09,54.5,47.15,53.3Z"/><path class="cls-1" d="M12.72,24.79a.29.29,0,0,1-.07-.28c.08.06.08.32.19.14V24.3c-.11,0-.14.12-.28.07.08-.32.26-.35.19-.64,0-.06-.19,0-.28-.14a.27.27,0,0,1,.23-.21c-.06.32.24-.13.28.14.06-.07.09-.19.19-.21s-.12-.06-.19-.07c-.05-.22,0-.19,0-.36.29.06.35.21.46-.14v-.07c0-.15-.16,0-.23-.07s.07-.14.14-.14c0-.2-.3.09-.23-.21.24,0,.2,0,.23-.21H3.73q-.31,1.22-.58,2.46l-.06.3Z"/><path class="cls-1" d="M34.05,48.8l-.08.05c0,.13.12.27,0,.31h.23C34.17,49,34.1,48.93,34.05,48.8Z"/><path class="cls-1" d="M27.4,25.54c.1,0,.08.2.23.16,0,.08-.06.18-.16.17a1.3,1.3,0,0,1,.12.56c.11,0,.21-.23.12-.28s.16-.08.16-.22c.11,0,.12.17.24.17S28,26,28,25.93h0c.13.07,0-.18.16-.11-.06-.18-.09-.14-.24-.11a.28.28,0,0,1,0-.16Z"/><path class="cls-1" d="M34.7,43.47c0,.13-.18,0-.2,0a.22.22,0,0,0,.09-.31h0s.08.1,0,.2c-.13-.23-.21,0-.33.11s-.17-.16-.2,0L34,43.36c.05.24,0,.23-.08.39s.17,0,.24.06c-.17,0-.6.38,0,.39.13.06-.11.06-.16.05.14.2.36.29.28.78-.11,0-.1.08-.2.06v.17c.08-.21.21.22.2-.05.13.06-.11.29.12.22-.08.11,0,.1,0,.28-.1,0-.15-.09-.28-.05a.14.14,0,0,0,.05.15H47.37c0-.88,0-1.75,0-2.63H34.74C34.79,43.35,34.5,43.44,34.7,43.47Z"/><path class="cls-1" d="M34.74,36.4a.19.19,0,0,1,0,.19c-.15,0-.43.08-.53-.11,0,.09,0,.1-.08.11s0,.14.08.17l-.08.11.16.06c0-.09.13,0,.08-.22,0,.11.24,0,.2.17.08,0,0-.21.16-.17l.08.11c0,.2-.12.35,0,.44l.05,0v0c0,.14.15.17.16.22s-.1-.12-.2-.06l-.12.11c0,.18.12.21.24.22-.09.16-.32-.15-.32.17l0,.17-.16-.06c0,.1,0,.12,0,.22s-.13-.08-.12-.22l-.12.11c0,.17.14.21.16.39a.21.21,0,0,0-.2.05c0,.06.09.06.08.17l-.16-.06c0,.16.21.12.28.22a1.61,1.61,0,0,0,.12-.56c.1.15.07.31.28.39,0,.15-.14-.06-.2-.06l-.08.06c0,.09,0,.16,0,.22H47.15q-.08-1.32-.19-2.63Z"/><path class="cls-1" d="M34.82,39.78a.26.26,0,0,1,0,.08.14.14,0,0,1-.07-.08h-.12l-.06.08c0,.12-.14.14-.2.22s.08,0,.2.05v.28c-.18,0-.22,0-.37-.11l-.08.06c0,.1.19.17.08.22l0,.17c.1,0,.07-.18,0-.22.18-.14.06.27.12.44l.16-.05c0-.21.21-.06.28,0v.33c-.09.07-.19.11-.24.22s.18,0,.2.11l0,.05v.11c-.08,0-.07-.16-.2-.11s.08.11.12.17-.09-.05-.16,0,.14.14.12.33L34.54,42c-.09,0,0,.29-.08.33.13,0,.12-.17.28-.11,0,.11,0,.13-.07.16H47.31c0-.88-.07-1.75-.12-2.63Z"/><path class="cls-1" d="M46.08,29.05H32.48c0,.23.1.46.27.48l-.12.11c.07.13.23.13.2.39.1,0,.13-.1.2,0s-.21,0-.28,0c0,.21.19.26.2.5-.17.16-.12.31,0,.55h0c-.05.28-.17.42-.13.72h.09s0-.1.12-.06c0-.13,0-.24-.12-.28a.18.18,0,0,1,.2-.11c-.07.16,0,.26,0,.45H46.46c-.11-.83-.21-1.67-.34-2.5Z"/><path class="cls-1" d="M7.33,35.28c.05.1,0,.29.12.33C7.37,35.56,7.38,35.37,7.33,35.28Z"/><path class="cls-1" d="M5.47,31.81v0l-.08,0Z"/><path class="cls-1" d="M10.52,29.05h0S10.51,29,10.52,29.05Z"/><path class="cls-1" d="M7.57,46.54h0a2,2,0,0,1,.3.25A1.81,1.81,0,0,0,7.57,46.54Z"/><path class="cls-1" d="M10.94,29.15c-.17,0-.17,0-.35,0v-.05h-.07s0,.17,0,.15.19-.11.25,0l-.06.24c.08,0,.12-.15.25-.1l.09.19c0-.18.12-.13.22-.17s.21-.15.32-.07.09-.19.12-.3h-.94A.27.27,0,0,1,10.94,29.15Z"/><path class="cls-1" d="M5.46,49.17l-.11-.09a.54.54,0,0,1-.13.09Z"/><path class="cls-1" d="M12,29.07a.33.33,0,0,0,.14.21.83.83,0,0,0,.12-.23h0A.51.51,0,0,1,12,29.07Z"/><path class="cls-1" d="M11.85,29.05h0Z"/><path class="cls-1" d="M22.42,49c0,.06,0,.12-.07.18h.17A.44.44,0,0,1,22.42,49Z"/><path class="cls-1" d="M15.54,48.49c-.12.08,0,.37,0,.5-.1,0-.12,0-.19.07a.65.65,0,0,0,0,.11h.92A1.63,1.63,0,0,0,15.54,48.49Z"/><path class="cls-1" d="M30.13,46.84c-.15.13-.34.19-.47.34C29.79,47,30,47,30.13,46.84Z"/><path class="cls-1" d="M22.65,49.17h.2C22.77,49.07,22.65,48.85,22.65,49.17Z"/><path class="cls-1" d="M29.41,49.92h-.21a.06.06,0,0,1,0,0A.27.27,0,0,0,29.41,49.92Z"/><path class="cls-1" d="M29.53,49.17h0l0,0Z"/><path class="cls-1" d="M1.09,51.86c1,0,3.68,0,7.26.1,0-.63-.06-1.24-.37-1.41l-.09.15c-.07-.25-.28-.11-.38,0,0-.21,0,0-.09,0l-.09-.29a.77.77,0,0,0-.63,0c0-.14,0-.27-.09-.24,0,.22.17.29.13.63-.14,0-.14-.14-.22-.19s-.1.24-.22.24A3.71,3.71,0,0,0,6,50c0,.09-.06.17-.16.15,0-.3-.11,0-.16,0a.34.34,0,0,1,0-.23H1C1.05,50.56,1.07,51.21,1.09,51.86Z"/><path d="M47.11,29.15C46.16,23,44.9,17,41.82,11.39a25.37,25.37,0,0,0-5.69-7.27A16.94,16.94,0,0,0,27.59.29,24.27,24.27,0,0,0,23.91,0c-6,0-11,2.51-14.89,7.6S3.49,18.39,2.17,24.27A103.72,103.72,0,0,0,0,47c0,3.61.19,7.2.3,10.9v.49H47.71l.06-.43c.06-.42.12-.68.14-1,.29-3.67.46-7.34.46-11A108.62,108.62,0,0,0,47.11,29.15ZM10,8H30.56A1,1,0,0,0,31,7.63l-.58-.4H10.61a19.74,19.74,0,0,1,3-2.85v.1H35l.52.41a19.28,19.28,0,0,1,2.29,2.34H34.95a5.64,5.64,0,0,1,.85.75h2.62a28.71,28.71,0,0,1,1.86,2.77H25.75a5.1,5.1,0,0,0-.82.31,1,1,0,0,0,.15.44h5.75v-.19a5.62,5.62,0,0,0,.55.19h9.35l.22.38c.43.78.82,1.58,1.18,2.38h-6c-.22.12-.5.19-.6.39a2,2,0,0,0,.68.36h6.22c.39.91.74,1.83,1.06,2.76H22.11a.25.25,0,0,0-.06-.16c.08,0,.23.07.19-.14-.31,0-.44.29-.65.07a1.12,1.12,0,0,1,0,.23h-.06c-.09-.11-.34-.16-.38-.09l.12.09h-.16c-.06-.17-.11-.33-.24-.23,0-.37-.25-.5-.6-.71.07-.1,0-.23-.09-.21s-.13,0-.14-.14.39-.2.23-.43c-.1.37-.31-.14-.42.07.12,0,.15.11.19.21l-.09.07c-.18-.36-.52,0-.7-.36.07.47-.36-.09-.46.21l-.09.14c-.1-.16-.16.06-.33,0a.46.46,0,0,0-.23-.57c-.1.2.1.37.19.5-.16.15,0,.15,0,.36-.12-.08-.26-.12-.33-.28.12-.16,0-.5-.14-.28.23.34-.2.18-.14.64.17,0,.21-.09.28.14-.15-.09,0,.23-.19.14h0c0,.08.17,0,.14.21-.14,0-.16-.18-.28-.21,0,.18-.18.1-.19.28s0,.4-.14.36a1.84,1.84,0,0,0-.14-.71c.12,0,.15-.11.19-.21-.18.06-.14-.21-.28-.21,0,.21.05.55-.09.57-.07-.18-.11-.4-.28-.43,0,.2-.07.19,0,.36s0-.23.19-.14.07.24,0,.36c-.11-.09-.1,0-.19-.14a.24.24,0,0,0,.19.36c.09,0,.06-.19.19-.14s.16.21,0,.21c-.18-.36,0,.18-.28.21-.06-.31-.29-.37-.33-.71-.1,0-.22.29-.14,0-.13,0-.11.27-.23.07,0,.34-.27.16-.28.43v-.28c-.11,0-.1.13-.23.07a.44.44,0,0,1-.07.44H5c.31-.94.66-1.85,1-2.76H33.56a.59.59,0,0,0,.14-.09c-.15-.23-.31-.44-.47-.66H6.29q.62-1.41,1.37-2.76h16a.78.78,0,0,0,.19-.5c-.39-.1-.81-.17-1.22-.25H8.11A26.57,26.57,0,0,1,9.81,8.2Zm17.44-6.7a16,16,0,0,1,6.49,2.45H14.51A16.59,16.59,0,0,1,23.91,1,23.26,23.26,0,0,1,27.43,1.28ZM2.28,29.05h3.9c0,.05,0,.14,0,.15-.07.17,0,.23-.13.34s.09.05.09.15c0,.27-.13.28-.13.49a1.63,1.63,0,0,1-.13-.39l-.13.1c0,.2.12.22,0,.34s.11,0,.16,0-.18,0-.16.24H5.6c.15.16.12.79-.13.83l.09.1c-.05.11-.18.12-.16.34-.08,0-.1-.09-.16,0s0,0,0,0H1.88Q2.06,30.43,2.28,29.05Zm.65-3.51h9.81a.36.36,0,0,0,0,.18c.12,0,.23,0,.23.14-.25-.05-.22.33-.33.5-.14,0-.09,0-.23,0a1.55,1.55,0,0,0,0,.71h.23c0,.37-.43.07-.33.78.15.09,0-.23.19-.14-.15.23.2.05.14.36-.08,0-.27-.09-.28.07s0,.08,0,.16h-2a.16.16,0,0,1,0-.07c-.08.13-.07-.06-.16,0,.05.2,0,0-.09,0a.43.43,0,0,1,0,.12H9.9s0,0,0-.07,0,.07-.05.07H9.78v-.22c.1-.06,0,.16.13.1s-.06-.11,0-.24c-.12,0-.14.17-.19.29s-.05-.24-.06-.39-.07.19-.19.15l.13.15a1.75,1.75,0,0,0-.05.17H9.34s-.09,0-.09-.12-.09.08-.15.12h0c0-.09.07-.07.09-.12h0c-.1.06,0-.16-.13-.1,0-.16.07-.12.19-.1,0-.32-.25-.2-.09-.44-.08-.15-.18.09-.09.19s-.14.14-.22.19c0-.14.11-.14,0-.24.06-.08.2-.21.13-.34a.31.31,0,0,0-.16.39c-.11,0-.15-.11-.22,0l-.06-.1c-.07-.21-.36.17-.31-.15-.12.23-.35,0-.47.24l-.06,0,.13-.15c-.07-.14-.21.2-.28,0-.11.15.15.15.16.29l-.09.1L7.45,28a1.07,1.07,0,0,0-.34.26H2.41Q2.65,26.92,2.93,25.54Zm1.78-7h10.6a.18.18,0,0,0-.06.09c.09,0,.23.26.09.36-.11-.06-.17-.21-.37-.14,0,.09,0,.26-.14.28,0-.36-.3-.1-.47-.36-.06.28.14.17.14.36s-.14-.1-.19.14c.22-.06.33.43.47.07,0,.12.06.42,0,.43,0-.34-.06-.08-.14-.21,0,.34-.29.56-.42.5,0,.19-.14.39,0,.5,0-.11,0-.25.09-.21s-.12.27,0,.28.25-.33.28-.07c-.17,0-.17.26-.37.21,0-.08-.17,0-.14-.21-.17,0-.27.11-.42.14.18.23-.06.3,0,.43.06-.22.14.08,0,.14.06,0,.19,0,.22,0h-10C4.17,20.35,4.43,19.43,4.72,18.52Zm39.82,2.76H22.88a1.07,1.07,0,0,1,.1-.82.17.17,0,0,0-.28,0c0-.28-.24-.1-.23-.35.07,0,.24.08.23-.07-.18-.17,0-.21,0-.5-.09,0-.06-.19-.19-.14a2.39,2.39,0,0,1-.19.57c0-.3-.15-.32-.19-.71,0-.13.15,0,.14-.21s-.08-.25-.19-.5l0,0H43.76C44,19.43,44.3,20.35,44.54,21.28ZM16.47,21a.52.52,0,0,1,.11-.31A.55.55,0,0,0,16.47,21ZM22,18.52v0c-.05,0-.07,0-.08,0Zm-6.37,0a.29.29,0,0,1-.19,0h.21S15.65,18.54,15.63,18.54ZM13.6,22a.18.18,0,0,1,0,.21c-.07,0-.06-.16-.1-.21Zm9.89,2.7c.12-.34-.09-.47,0-.71a.2.2,0,0,0-.23.14c.09,0,.12.19.14.36-.18-.1-.09.2-.23.14-.09-.45.07-.61.14-1h0c-.09-.31-.14-.51,0-.71,0-.3-.19-.37-.23-.64.08,0,.27.19.33,0s-.12,0-.23,0A.39.39,0,0,0,23.2,22H44.73c.22.91.43,1.83.61,2.76H23.51A.09.09,0,0,1,23.49,24.73ZM34.36,46.54a1.1,1.1,0,0,1,.09.21l-.18-.21ZM34.25,49c.11,0,.15.09.22.15h-.18C34.25,49.11,34.23,49.06,34.25,49Zm-11.37.15s0,0,0,0c.22,0,.29-.27.44-.05.1,0,.09-.21.24-.17l0,.11h-.08a.6.6,0,0,0-.07.15Zm-6,1a.57.57,0,0,0,.08.41v1.68c-2.57-.14-5-.24-7.24-.3v-.88a.39.39,0,0,0,.06-.28,3.42,3.42,0,0,1,.53-.91h.35V50l.13,0c0,.21-.19.26-.16.58.12,0,.12.16.28.1a.67.67,0,0,0,.09-.39c.19-.06.09.35.19.44l.16-.15a.22.22,0,0,0,.28.15,1.2,1.2,0,0,1,0-.34l-.13,0c0-.2.18,0,.22.15s.07-.15.06-.29c-.18-.13-.5,0-.6-.33h.67a.7.7,0,0,1,0,.38c0,.07.17,0,.13.19.11,0,.13-.12.19-.19s0,.2.16.15c0-.22,0-.29,0-.49l-.09.19,0-.1c.06-.06.06-.1,0-.13h2a2.11,2.11,0,0,0,0,.21.33.33,0,0,0,.41-.21h0c.08.06.13.17.23.21a.33.33,0,0,0,.07-.21h.29a1.25,1.25,0,0,1,.06.14c.23.09.25-.13.4-.14h1.14ZM4.19,38.82l.09.1a.28.28,0,0,1,0,.1H4.15S4.19,38.92,4.19,38.82Zm2.07-9.77h.1c-.08,0,0,.22-.09.15v-.15Zm18.44-1c.08,0,.12.11.14,0-.14-.2-.23.07-.33.14a.38.38,0,0,1-.09-.28c0-.23.21-.15.14-.5-.37,0,0-.43-.09-.57v-.07c-.17,0-.32,0-.28-.29a1.64,1.64,0,0,1,.42-.14.28.28,0,0,1-.19-.43c-.06,0-.11,0-.09-.14-.14-.05-.09.2-.23.14,0-.2-.1-.29-.17-.4h3.47c0,.17,0,.43-.08.44-.06-.14-.1-.31-.24-.33,0,.16-.06.14,0,.28s0-.18.16-.11.06.19,0,.28c-.1-.07-.09,0-.16-.11a.19.19,0,0,0,.16.28c.08,0,.05-.15.16-.11s.14.16,0,.17c-.16-.28,0,.14-.24.17-.05-.24-.25-.29-.28-.56-.09,0-.19.23-.12,0-.11,0-.09.21-.2.06,0,.27-.24.12-.24.33v-.22c-.1,0-.09.1-.2.06.08.21,0,.44-.24.39,0,.19.21.09.2.28s-.28.1-.37.22c.23-.05.21,0,.45-.06s0-.21,0-.22l.12.17c-.14-.09,0,.19-.12.17s-.25-.13-.33.06c.08,0,.2.2.08.28s-.15-.17-.33-.11l-.12.22c0-.28-.26-.08-.41-.28-.05.22.12.13.12.28s-.13-.08-.16.11c.19,0,.29.33.41.06,0,.1,0,.33,0,.33,0-.26-.05-.06-.12-.17,0,.26-.26.44-.37.39a.2.2,0,0,1,0,0h-.15A.34.34,0,0,1,24.7,28.07Zm3.75-2.53a.35.35,0,0,1,0,.11l-.18-.11Zm1.74,8.87h0l0-.2ZM23,48.74c0,.11-.13.12-.16.22a1.05,1.05,0,0,0-.23-.4l.09,0,0,0C22.86,48.58,23,48.6,23,48.74Zm-3.37-1.68c-.17.29-.17.83-.56.78,0-.1-.18-.17,0-.21s.1-.27.09-.5c.21,0,.29-.12.33-.36A.59.59,0,0,1,19.68,47.07Zm-5.09,2.1h-.8c0-.18,0-.37.13-.39.19-.44.55-.45.74-.28l0,.21c0-.08-.06-.06,0,.07s.09-.19.23-.14l0,.14A.48.48,0,0,1,14.58,49.17ZM8,49.17c-.11-.11-.13-.33-.21-.48l.13-.2c0,.16.08.26.22.24,0,.15,0,.29.06.34s0,0,0,.09Zm3.27-19.57c0-.11.09-.08.1-.18s.18,0,.17.08-.08.12-.09.21h.09c-.06.14-.18.36-.09.5h-.05a.39.39,0,0,1-.19-.32c-.05.09-.11-.08-.09.15l0-.29c.09.24.17-.09.31,0C11.42,29.53,11.37,29.68,11.32,29.59ZM13.1,48.34c0-.08-.1-.09-.12-.18a.19.19,0,0,1,.18-.13A1.29,1.29,0,0,0,13.1,48.34Zm7.06-4.5c-.17.17-.39.25-.54.44A6.71,6.71,0,0,1,20.16,43.84Zm-8.75-13.3v0s0,0,0,.07a.14.14,0,0,0-.1-.07C11.3,30.45,11.36,30.48,11.41,30.53Zm1.13,18.3c0-.16.1,0,.06-.19l.16,0a1.29,1.29,0,0,0-.09-.29h-.06l0-.1c.12,0,.11.12.19.15.12-.19.17.06.35,0a.32.32,0,0,0,0-.06.55.55,0,0,0,0,.13c.12,0,.19-.07.28.07s-.24.24,0,.43l0,.11h0c0-.1,0-.23-.13-.25a1.1,1.1,0,0,1,0,.25H12.6c0-.14,0-.32.07-.38Zm15.66-23c-.13-.07,0,.18-.16.11h0c0,.06.15,0,.12.17s-.14-.14-.24-.17c0,.14-.16.08-.16.22s0,.31-.12.28a1.3,1.3,0,0,0-.12-.56c.1,0,.13-.09.16-.17-.15,0-.13-.14-.23-.16H28a.28.28,0,0,0,0,.16C28.11,25.68,28.14,25.63,28.2,25.81ZM12.1,29.28a.33.33,0,0,1-.14-.21.51.51,0,0,0,.21,0h0A.83.83,0,0,1,12.1,29.28Zm-.25-.23h0Zm-.21.3c-.11-.07-.29-.05-.32.07s-.2,0-.22.17L11,29.4c-.14,0-.17.05-.25.1l.06-.24c-.06-.16-.12,0-.25,0s0-.12,0-.15h.07v.05c.18,0,.17,0,.35,0a.27.27,0,0,0-.13-.1h.94C11.72,29.16,11.7,29.3,11.63,29.35Zm-1.11-.3s0,0,0,0h0ZM5.47,31.81H5.39l.08,0Zm2,3.8c-.08,0-.07-.24-.12-.33C7.38,35.37,7.37,35.56,7.45,35.61Zm.12,10.92a1.81,1.81,0,0,1,.3.25,2,2,0,0,0-.3-.25ZM5.46,49.17H5.22a.54.54,0,0,0,.13-.09Zm.22.75a.34.34,0,0,0,0,.23c.05,0,.17-.3.16,0,.1,0,.13-.06.16-.15a3.71,3.71,0,0,1,.31.88c.12,0,.12-.2.22-.24s.08.23.22.19c0-.34-.09-.41-.13-.63.1,0,.1.1.09.24a.77.77,0,0,1,.63,0l.09.29s.1-.21.09,0c.1-.11.3-.25.38,0L8,50.54c.31.18.35.78.37,1.41-3.59-.09-6.29-.1-7.26-.1,0-.65,0-1.29-.06-1.94Zm9.71-.75a.65.65,0,0,1,0-.11c.06,0,.09-.1.19-.07,0-.13-.12-.41,0-.5a1.63,1.63,0,0,1,.77.68Zm7-.18a.44.44,0,0,0,.1.18h-.17C22.37,49.11,22.4,49.05,22.42,49Zm.43.18h-.2C22.65,48.85,22.77,49.07,22.85,49.17Zm6.56.75a.27.27,0,0,1-.19,0,.06.06,0,0,0,0,0Zm.12-.75v0l0,0Zm.13-2c.14-.14.33-.21.47-.34C30,47,29.79,47,29.65,47.17Zm4.33,2c.11,0,0-.18,0-.31l.08-.05c.05.13.12.25.17.37Zm.54-13.52-.07-.06v.06h-.22l-.06-.06s0,.06,0,.06h0s-.06-.12-.09-.12.26,0,.12-.22c.08-.05.14.17.16,0s-.16,0-.16-.11a1.66,1.66,0,0,1,.24-.39c-.17,0-.33,0-.33-.28h.12c-.12-.16-.2.05-.28.11a.27.27,0,0,1-.08-.22c0-.18.18-.12.12-.39-.32,0,0-.34-.08-.45v-.05c-.15,0-.28,0-.24-.22A1.51,1.51,0,0,1,34,33.2c-.11,0-.29-.14-.16-.33,0,0-.1,0-.08-.11s-.08.15-.2.11-.09-.22-.15-.3H46.56c.13,1,.23,2.06.32,3.08Zm-2.2-7.35a.05.05,0,0,0,0,0c-.16-.13,0-.16,0-.39-.08,0-.05-.15-.16-.11a1.7,1.7,0,0,1-.16.44c0-.23-.13-.25-.16-.55,0-.1.13,0,.12-.17s-.07-.2-.16-.39c.13,0,0-.36-.08-.17v.17c-.14.09,0-.19-.12-.17,0-.22.35-.34.16-.56.07,0,.2.06.16-.11-.27,0-.38.22-.57.06l0,.22c0-.12-.33-.18-.37-.11a.47.47,0,0,1,.24.22l-.08.11c-.22,0-.18-.59-.41-.44,0-.29-.21-.39-.53-.56.06-.08,0-.18-.08-.17a0,0,0,0,0,0-.05h15.4q.26,1.37.48,2.76ZM1.78,32.56H5.39l0,.14h0c0,.26.15.38.09.68-.1,0,0-.17-.16-.1,0-.11,0-.21.09-.24l-.16-.1c.06.16-.08.25,0,.49s-.1,0-.09.15l-.06-.1a.3.3,0,0,0,0,.34H5c.09.19-.14.21-.13.44-.1,0-.06-.13-.16-.1l-.06.1a.19.19,0,0,1-.13.29,1.06,1.06,0,0,1,.28.1c0,.21-.08.21-.19.19v0c-.07.09.19.36-.06.39,0,.24.09.18.09.34v0H1.46C1.55,34.62,1.66,33.59,1.78,32.56ZM4.25,36.4c0,.11,0,0,.08,0h0c-.1.21,0,.08.09.19s-.06.21-.09,0a.31.31,0,0,0-.13.24H4.16v-.24c-.11.07-.14.27-.28.29L4,37c0,.12-.19.09-.19.29l.09-.1c.1.08-.08.13,0,.29.12,0,.34.07.41-.1l.06.1-.06.15.06.1-.13,0c0-.08-.1,0-.06-.19,0,.1-.19,0-.16.15-.06,0,0-.19-.13-.15l-.06.1c0,.18.1.3,0,.39l0,0v0c0,.13-.12.15-.13.19s.08-.1.16,0l.09.1c0,.16-.09.19-.19.19.07.14.25-.13.25.15l0,.15.13,0c0,.09,0,.1,0,.19H1.22q.07-1.32.18-2.63ZM4,39.78a2.22,2.22,0,0,1,0,.41c0,.06-.16-.06-.13.19l.06-.15.06,0,.06.1c0,.11.11.12.16.19s-.06,0-.16,0v.24c.14,0,.17,0,.28-.1l.06,0L4.34,41l0,.15,0-.19c-.14-.13,0,.24-.09.39l-.13,0c0-.19-.16,0-.22,0v.29c.07.06.15.09.19.19s-.14,0-.16.1l0,0V42c.06,0,.06-.14.16-.1S4,42,4,42.08s.07,0,.13,0S4,42.2,4,42.37l.09-.1,0,.13h-3q0-1.32.11-2.63Zm-3,3.38h3c0,.05-.07.1-.15.09-.06.18.19.26,0,.29,0,.11.14,0,.16,0s-.16-.2-.06-.29,0,.08,0,.19c.1-.2.16,0,.25.1s.13-.14.16,0l.06-.1c0,.21,0,.2.06.34s-.13,0-.19,0c.14,0,.46.33,0,.34-.1.06.08.05.13,0a.75.75,0,0,0-.22.68l.16,0v.14c-.06-.18-.16.19-.16,0-.1.06.09.26-.09.19.06.09,0,.09,0,.24.07,0,.12-.08.22,0s-.09.09-.06.24c.07,0,.07,0,.07.11H1Q1,44.47,1.05,43.16ZM1,47c0-.16,0-.32,0-.48H4a.29.29,0,0,0,0,.26c.07,0,.07-.12.06-.24.07.11.11,0,.22,0-.13.19-.15.34-.38.44.05.13.22,0,.25,0,0,.18-.09.09-.06.24l.16.15c0,.14-.09-.12-.06.1l.13,0A.79.79,0,0,1,4,48c0,.09.37-.11.25.1s.07,0,.13,0l0-.19c.14.06.05.2.06.39-.15,0-.23.06-.25.24.07,0,.09-.15.19-.15s-.13.26-.22.29.09.09.06.24l.16,0a1.19,1.19,0,0,1,.16-.68l.06,0c0,.13-.14.28,0,.29a1.07,1.07,0,0,0-.09.44c.11,0,0-.22.13-.19s.06.2.06,0l.09.24,0-.15.09.1,0,.15L5,49l.06.1a.12.12,0,0,1-.08.09H1C1,48.45,1,47.73,1,47Zm20,5.53-2.07-.14v-.3a4.2,4.2,0,0,1,.39-2.19h.26s0,.06.05.07,0,0,0-.07h.44l.07.07a.34.34,0,0,1,0-.07h.07s0,.07.07.07a.41.41,0,0,0,0-.07h1a1.22,1.22,0,0,0,0,.28c.21.06.21-.2.32-.28h0c.14.07.14.34.32.35a2,2,0,0,1,.08-.35h1.51a.34.34,0,0,0,0,.1l.08-.1h0c.08.09,0,.43.12.44,0-.16,0-.28.08-.33.05.14.12-.1.16.06a.61.61,0,0,0,0,.44c.1,0,.17-.05.24.06s-.21.18,0,.33l0,.11L24,50.8c0,.22-.07.31,0,.55.15.06.13-.12.2-.17s.11.22.24.22c-.05-.22.11-.14.16-.22s-.07-.47.08-.5a.43.43,0,0,1,.65-.22l0,.17c0-.06-.05,0,0,.06s.08-.15.2-.11l0,.11c-.09.48-.57.29-.81.44,0,.16,0,.28.08.33,0-.12.23-.4.28-.17l-.16.06a1.22,1.22,0,0,1,0,.39.3.3,0,0,0,.37-.17l.2.17c.13-.1,0-.56.24-.5a.69.69,0,0,0,.12.44c.21.08.21-.11.37-.11,0-.37-.14-.43-.2-.67l.16-.06c0-.1-.11-.32,0-.39.57.19.85.77,1.14,1.33a.41.41,0,0,0,.07.32v.43Zm8.55-1.08c.09,0,0,.16.12.17.09-.29.36-.12.49,0,0-.23.06,0,.12,0l.12-.33a1.11,1.11,0,0,1,.81.06c0-.16,0-.3.12-.28,0,.25-.22.33-.16.72.18,0,.18-.16.28-.22s.13.27.28.28a3.94,3.94,0,0,1,.41-1c0,.1.08.19.2.17,0-.34.14,0,.2,0,.07-.21-.09-.38-.2-.5a1.75,1.75,0,0,0,.57-.17c0-.22-.1-.2-.12-.33l.11-.1h.25a.78.78,0,0,1,.49.33v-.33H47.3q0,1.31-.11,2.63H29.06C29.1,52,29.2,51.61,29.5,51.46Zm17.82-2.3H34.49c0-.19-.13-.29-.32-.26,0-.22-.09-.38.08-.44a.4.4,0,0,1,0,.22c.08-.05.14.17.16,0-.15-.24.33,0,.33-.11a.91.91,0,0,1-.49-.61l.16-.06c0-.24-.08,0-.08-.11s.1-.16.2-.17c0-.17-.14-.07-.08-.28,0,.08.25.2.32.06-.29-.11-.32-.29-.49-.5.15,0,.2.13.28,0,0,.14,0,.27.08.28.14-.27-.12-.38-.12-.65H47.36Q47.36,47.85,47.32,49.17Zm0-3.38H34.14a.14.14,0,0,1-.05-.15c.13,0,.19,0,.28.05,0-.18-.08-.17,0-.28-.23.07,0-.16-.12-.22,0,.27-.12-.15-.2.05v-.17c.1,0,.09-.1.2-.06.07-.49-.14-.58-.28-.78.05,0,.29,0,.16-.05-.6,0-.17-.38,0-.39-.07,0-.24.07-.24-.06s.13-.14.08-.39l.08.11c0-.16.13,0,.2,0s.2-.34.33-.11c0-.1,0-.17,0-.2h0a.22.22,0,0,1-.09.31s.19.13.2,0c-.2,0,.09-.12,0-.31H47.32C47.34,44,47.36,44.91,47.37,45.79Zm-12.7-3.38s.09-.05.07-.16c-.17-.06-.16.12-.28.11.08,0,0-.31.08-.33l.12.11c0-.2-.14-.14-.12-.33s.14.17.16,0-.15,0-.12-.17.13.09.2.11v-.11l0-.05c0-.1-.19,0-.2-.11s.16-.16.24-.22v-.33c-.07-.06-.25-.21-.28,0l-.16.05c-.06-.17.06-.59-.12-.44,0,0,.06.18,0,.22l0-.17c.11,0-.09-.12-.08-.22l.08-.06c.14.13.19.07.37.11v-.28c-.13,0-.17.13-.2-.05s.17-.1.2-.22l.06-.08h.12a.14.14,0,0,0,.07.08.26.26,0,0,0,0-.08H47.19c0,.88.09,1.75.12,2.63ZM34.61,39c0-.06,0-.13,0-.22l.08-.06c.06,0,.17.21.2.06-.21-.08-.18-.24-.28-.39a1.61,1.61,0,0,1-.12.56c-.07-.1-.25-.07-.28-.22l.16.06c0-.11-.06-.11-.08-.17a.21.21,0,0,1,.2-.05c0-.17-.14-.21-.16-.39l.12-.11c0,.15,0,.28.12.22s0-.12,0-.22l.16.06,0-.17c0-.32.23,0,.32-.17-.13,0-.24,0-.24-.22l.12-.11c.1-.06.14.24.2.06s-.21-.08-.16-.22v0l-.05,0c-.08-.1,0-.24,0-.44l-.08-.11c-.13,0-.08.14-.16.17,0-.2-.18-.06-.2-.17,0,.17-.06.13-.08.22l-.16-.06.08-.11c-.05,0-.08-.07-.08-.17s.1,0,.08-.11c.09.19.38.12.53.11a.19.19,0,0,0,0-.19H47q.11,1.31.19,2.63Zm-1.55-7.21c0-.19-.09-.29,0-.45a.18.18,0,0,0-.2.11c.08,0,.11.15.12.28-.09,0-.1,0-.12.06h-.09c0-.3.07-.44.13-.72h0c-.08-.24-.13-.4,0-.55,0-.24-.17-.29-.2-.5.07,0,.24.15.28,0s-.1,0-.2,0c0-.25-.14-.26-.2-.39l.12-.11c-.17,0-.26-.25-.27-.48H46.08l0,.26c.13.83.23,1.67.34,2.5ZM3.73,22H13.4c0,.18,0,.24-.23.21-.07.3.24,0,.23.21-.07,0-.16,0-.14.14s.24-.08.23.07v.07c-.11.35-.17.2-.46.14-.07.17-.1.13,0,.36.07,0,.17,0,.19.07s-.12.14-.19.21c0-.27-.34.18-.28-.14a.27.27,0,0,0-.23.21c.09.15.24.08.28.14.07.29-.1.32-.19.64.14.05.17-.07.28-.07v.36c-.11.17-.1-.08-.19-.14a.29.29,0,0,0,.07.28H3.09l.06-.3Q3.42,23.25,3.73,22ZM41.88,57.4c-1.39-2-6.6-3.23-12.86-4.05v0H47.15c-.07,1.2-.14,2.4-.24,3.6,0,.14,0,.3-.07.5Z"/><path class="cls-2" d="M32.18,12.74a14.68,14.68,0,0,0,1.05,1.52c.16.21.32.43.47.66a.59.59,0,0,1-.14.09,2.66,2.66,0,0,1-.85.19A1.26,1.26,0,0,0,34,16.49c.16-.29.1-.73.38-.94.72.35,1.49.62,2.21,1a2.13,2.13,0,0,0,1.67,1.08A17.91,17.91,0,0,0,37,15.46a2,2,0,0,0-.82-.45,2,2,0,0,1-.68-.36c.1-.2.38-.27.6-.39l.14-.08a1.94,1.94,0,0,0-1.5-.07c-.75-.53-1-1.45-1.62-1.92a6.59,6.59,0,0,0-1.8-.69,5.62,5.62,0,0,1-.55-.19v.19h0A2.25,2.25,0,0,0,32.18,12.74Z"/><path class="cls-2" d="M31.93,9.16c0-.38-.07-.69,0-1.1a6,6,0,0,1,1.25.16,4.67,4.67,0,0,1,1.33,0c.2.07.35.3.55.39a2.7,2.7,0,0,0,1.68.2V8.77A4.33,4.33,0,0,1,35.79,8a5.64,5.64,0,0,0-.85-.75,2.29,2.29,0,0,0-.2-.14,9,9,0,0,0-2-.35c.09-.36.42-.47.59-.74-.29,0-.43-.07-.63,0-.36.05-.57.45-.9.47-.7,0-1.28-.88-1.88-1.21-.94-.52-2-.29-3.36-.35a2.15,2.15,0,0,0,2,1,17.22,17.22,0,0,0,1.81,1.36l.58.4a1,1,0,0,1-.39.36,2.83,2.83,0,0,0-.51.35A1.47,1.47,0,0,0,31.93,9.16Z"/><path class="cls-2" d="M27.35,10.23a3.88,3.88,0,0,1,.5.12,2.32,2.32,0,0,0,1.64-.43A17.09,17.09,0,0,0,27,9.14c-.71-.07-1.2.33-1.89.4-.05-.32.17-.58.25-.87-.27.13-.49.08-.74.28s-.27.58-.5.68-.79-.08-1.15-.16a4.67,4.67,0,0,0-1.55-.22c-1.07.1-1.61.71-2.54.93a2.22,2.22,0,0,0,2.17.16,8.9,8.9,0,0,0,1.56.4c.41.08.83.15,1.22.25a.78.78,0,0,1-.19.5,2.59,2.59,0,0,0-.34.43,1.58,1.58,0,0,0,.9.43h.43c.2-.14.52-.16.65-.37a2.11,2.11,0,0,0-.25-.49,1,1,0,0,1-.15-.44,5.1,5.1,0,0,1,.82-.31l1-.31A2.92,2.92,0,0,1,27.35,10.23Z"/></g></g></svg>